<svg width="16" height="16" viewBox="0 0 16 16" fill="none" xmlns="http://www.w3.org/2000/svg">
<path d="M16 8C16 12.4183 12.4183 16 8 16C3.58172 16 0 12.4183 0 8C0 3.58172 3.58172 0 8 0C12.4183 0 16 3.58172 16 8ZM1.45951 8C1.45951 11.6122 4.38779 14.5405 8 14.5405C11.6122 14.5405 14.5405 11.6122 14.5405 8C14.5405 4.38779 11.6122 1.45951 8 1.45951C4.38779 1.45951 1.45951 4.38779 1.45951 8Z" fill="#696969"/>
<path d="M7.75331 3C7.33726 3 7 3.32163 7 3.71839V8.36401C7 8.36401 7 8.55129 7.09545 8.69217C7.15933 8.81164 7.25891 8.91544 7.38976 8.9875L10.8699 10.9037C11.2302 11.102 11.691 10.9843 11.899 10.6407C12.1069 10.2971 11.9836 9.85768 11.6232 9.65934L8.50663 7.94339V3.71839C8.50663 3.32164 8.16937 3 7.75331 3Z" fill="#696969"/>
</svg>
